<?xml version="1.0" encoding="UTF-8"?>
<svg width="74px" height="74px" viewBox="0 0 74 74" version="1.1" xmlns="http://www.w3.org/2000/svg" xmlns:xlink="http://www.w3.org/1999/xlink">
    <!-- Generator: Sketch 52.1 (67048) - http://www.bohemiancoding.com/sketch -->
    <title>mdpi/message_icon_add</title>
    <desc>Created with Sketch.</desc>
    <g id="商家端" stroke="none" stroke-width="1" fill="none" fill-rule="evenodd">
        <g id="0.0.1图标_商家端" transform="translate(-18.000000, -623.000000)" fill="#FFFFFF" fill-rule="nonzero">
            <g id="message_icon_add" transform="translate(18.000000, 623.000000)">
                <circle id="Oval" opacity="0.100000001" cx="37" cy="37" r="37"></circle>
                <path d="M34.5,34.5 L34.5,19.5 C34.5,18.1192881 35.6192881,17 37,17 C38.3807119,17 39.5,18.1192881 39.5,19.5 L39.5,34.5 L54.5,34.5 C55.8807119,34.5 57,35.6192881 57,37 C57,38.3807119 55.8807119,39.5 54.5,39.5 L39.5,39.5 L39.5,54.5 C39.5,55.8807119 38.3807119,57 37,57 C35.6192881,57 34.5,55.8807119 34.5,54.5 L34.5,39.5 L19.5,39.5 C18.1192881,39.5 17,38.3807119 17,37 C17,35.6192881 18.1192881,34.5 19.5,34.5 L34.5,34.5 Z" id="Combined-Shape" opacity="0.5" transform="translate(37.000000, 37.000000) rotate(-360.000000) translate(-37.000000, -37.000000) "></path>
            </g>
        </g>
    </g>
</svg>