<?xml version="1.0" encoding="UTF-8"?>
<svg width="23px" height="23px" viewBox="0 0 23 23" version="1.1" xmlns="http://www.w3.org/2000/svg" xmlns:xlink="http://www.w3.org/1999/xlink">
    <!-- Generator: Sketch 52.1 (67048) - http://www.bohemiancoding.com/sketch -->
    <title>mdpi/message_icon_close</title>
    <desc>Created with Sketch.</desc>
    <g id="商家端" stroke="none" stroke-width="1" fill="none" fill-rule="evenodd">
        <g id="0.0.1图标_商家端" transform="translate(-260.000000, -652.000000)" fill="#FFFFFF" fill-rule="nonzero">
            <g id="Group-7" transform="translate(255.000000, 647.000000)">
                <circle id="Combined-Shape" opacity="0.300000012" transform="translate(16.500000, 16.500000) rotate(-45.000000) translate(-16.500000, -16.500000) " cx="16.5" cy="16.5" r="11.5"></circle>
                <path d="M16.0852814,16.0852814 L16.0852814,10.8382226 C16.0852814,10.6432985 16.2531746,10.4852814 16.4602814,10.4852814 C16.6673882,10.4852814 16.8352814,10.6432985 16.8352814,10.8382226 L16.8352814,16.0852814 L22.1102814,16.0852814 C22.3173882,16.0852814 22.4852814,16.2531746 22.4852814,16.4602814 C22.4852814,16.6673882 22.3173882,16.8352814 22.1102814,16.8352814 L16.8352814,16.8352814 L16.8352814,22.1323402 C16.8352814,22.3272642 16.6673882,22.4852814 16.4602814,22.4852814 C16.2531746,22.4852814 16.0852814,22.3272642 16.0852814,22.1323402 L16.0852814,16.8352814 L10.8602814,16.8352814 C10.6531746,16.8352814 10.4852814,16.6673882 10.4852814,16.4602814 C10.4852814,16.2531746 10.6531746,16.0852814 10.8602814,16.0852814 L16.0852814,16.0852814 Z" id="Combined-Shape" transform="translate(16.485281, 16.485281) rotate(-315.000000) translate(-16.485281, -16.485281) "></path>
            </g>
        </g>
    </g>
</svg>