<?xml version="1.0" encoding="UTF-8"?>
<svg width="9px" height="9px" viewBox="0 0 9 9" version="1.1" xmlns="http://www.w3.org/2000/svg" xmlns:xlink="http://www.w3.org/1999/xlink">
    <!-- Generator: Sketch 52.1 (67048) - http://www.bohemiancoding.com/sketch -->
    <title>mdpi/mine_icon_reason</title>
    <desc>Created with Sketch.</desc>
    <g id="商家端" stroke="none" stroke-width="1" fill="none" fill-rule="evenodd">
        <g id="0.0.1图标_商家端" transform="translate(-189.000000, -43.000000)" fill="#FFFFFF" fill-rule="nonzero">
            <g id="Group-6" transform="translate(189.000000, 43.000000)">
                <g id="Group-5">
                    <path d="M4.5,9 C2.01471863,9 -3.64153152e-14,6.98528137 -3.64153152e-14,4.5 C-3.64153152e-14,2.01471863 2.01471863,2.04281037e-14 4.5,2.04281037e-14 C6.98528137,2.04281037e-14 9,2.01471863 9,4.5 C9,6.98528137 6.98528137,9 4.5,9 Z M4.5381,1.5 C3.9765,1.5 3.5397,1.6716 3.2277,2.0148 C2.9157,2.3424 2.7675,2.7792 2.7675,3.3252 L3.3837,3.3252 C3.3837,2.943 3.4695,2.6466 3.6411,2.4282 C3.8283,2.1708 4.1169,2.046 4.5069,2.046 C4.8345,2.046 5.0919,2.1318 5.2713,2.319 C5.4429,2.4906 5.5365,2.7324 5.5365,3.0444 C5.5365,3.2628 5.4585,3.4656 5.3025,3.6606 C5.2557,3.723 5.1621,3.8166 5.0373,3.9414 C4.6161,4.3158 4.3587,4.6122 4.2495,4.8462 C4.1559,5.0412 4.1091,5.2674 4.1091,5.5248 L4.1091,5.7042 L4.7331,5.7042 L4.7331,5.5248 C4.7331,5.3142 4.7799,5.127 4.8813,4.9554 C4.9593,4.815 5.0763,4.6746 5.2479,4.5264 C5.5911,4.2222 5.8017,4.0194 5.8797,3.9258 C6.0747,3.6684 6.1761,3.3642 6.1761,3.0132 C6.1761,2.5452 6.0279,2.1786 5.7393,1.9134 C5.4351,1.6326 5.0373,1.5 4.5381,1.5 Z M4.4211,6.2502 C4.2885,6.2502 4.1793,6.2892 4.0857,6.3828 C3.9921,6.4686 3.9531,6.5778 3.9531,6.7104 C3.9531,6.843 3.9921,6.9522 4.0857,7.0458 C4.1793,7.1316 4.2885,7.1784 4.4211,7.1784 C4.5537,7.1784 4.6629,7.1316 4.7565,7.0458 C4.8501,6.96 4.8969,6.8508 4.8969,6.7104 C4.8969,6.5778 4.8501,6.4686 4.7643,6.3828 C4.6707,6.2892 4.5537,6.2502 4.4211,6.2502 Z" id="mine_icon_reason"></path>
                </g>
            </g>
        </g>
    </g>
</svg>