<?xml version="1.0" standalone="no"?><!DOCTYPE svg PUBLIC "-//W3C//DTD SVG 1.1//EN" "http://www.w3.org/Graphics/SVG/1.1/DTD/svg11.dtd"><svg t="1564889544246" class="icon" viewBox="0 0 1024 1024" version="1.1" xmlns="http://www.w3.org/2000/svg" p-id="9036" width="32" height="32" xmlns:xlink="http://www.w3.org/1999/xlink"><defs><style type="text/css"></style></defs><path d="M946.9 493.2L531.1 125.5c-12.1-6-30.1-6-42.2 0L73 493.2c-6 12.1-12.1 24.1-6 42.2 6 18.1 18.1 24.1 30.1 24.1h66.3v192.9c0 84.4 66.3 150.7 150.7 150.7h265.2c48.2 0 90.4-42.2 90.4-96.4V637.8c0-54.2-42.2-96.4-96.4-96.4H440.7c-54.2 0-96.4 42.2-96.4 96.4v108.5c0 18.1 18.1 36.2 36.2 36.2s36.2-18.1 36.2-36.2V637.8c0-12.1 12.1-24.1 24.1-24.1h138.6c12.1 0 24.1 12.1 24.1 24.1v168.7c0 12.1-12.1 24.1-24.1 24.1H320.1c-48.2 0-84.4-36.2-84.4-84.4v-229c0-18.1-18.1-36.2-36.2-36.2h-6L513 203.9l319.4 283.3h-12.1c-18.1 0-36.2 18.1-36.2 36.2v229c0 30.1-12.1 54.2-36.2 72.3-18.1 12.1-24.1 30.1-12.1 48.2C747.9 891 765.9 897 784 885c42.2-30.1 72.3-78.3 72.3-126.6V565.5h66.3c12.1 0 30.1-6 30.1-24.1 12.3-24.1 6.3-36.2-5.8-48.2z m0 0" p-id="9037" fill="#ffffff"></path></svg>