<?xml version="1.0" encoding="UTF-8"?>
<svg width="40px" height="40px" viewBox="0 0 40 40" version="1.1" xmlns="http://www.w3.org/2000/svg" xmlns:xlink="http://www.w3.org/1999/xlink">
    <!-- Generator: Sketch 52.1 (67048) - http://www.bohemiancoding.com/sketch -->
    <title>icon_succed</title>
    <desc>Created with Sketch.</desc>
    <g id="我的页面" stroke="none" stroke-width="1" fill="none" fill-rule="evenodd">
        <g id="4.1验证码错误" transform="translate(-168.000000, -296.000000)" fill="#FFFFFF" fill-rule="nonzero">
            <g id="处理成功" transform="translate(95.000000, 276.000000)">
                <g id="Group-3" transform="translate(26.500000, 19.500000)">
                    <g id="icon_succed" transform="translate(46.500000, 0.500000)">
                        <path d="M20,40 C8.954305,40 0,31.045695 0,20 C0,8.954305 8.954305,0 20,0 C31.045695,0 40,8.954305 40,20 C40,31.045695 31.045695,40 20,40 Z M19.9743687,18.2066017 L15.5549513,13.7871843 C15.0667959,13.299029 14.2753397,13.299029 13.7871843,13.7871843 C13.299029,14.2753397 13.299029,15.0667959 13.7871843,15.5549513 L18.2066017,19.9743687 L13.7871843,24.3937861 C13.299029,24.8819414 13.299029,25.6733976 13.7871843,26.161553 C14.2753397,26.6497084 15.0667959,26.6497084 15.5549513,26.161553 L19.9743687,21.7421356 L24.3937861,26.161553 C24.8819414,26.6497084 25.6733976,26.6497084 26.161553,26.161553 C26.6497084,25.6733976 26.6497084,24.8819414 26.161553,24.3937861 L21.7421356,19.9743687 L26.161553,15.5549513 C26.6497084,15.0667959 26.6497084,14.2753397 26.161553,13.7871843 C25.6733976,13.299029 24.8819414,13.299029 24.3937861,13.7871843 L19.9743687,18.2066017 Z" id="Combined-Shape"></path>
                    </g>
                </g>
            </g>
        </g>
    </g>
</svg>