<?xml version="1.0" encoding="UTF-8"?>
<svg width="30px" height="30px" viewBox="0 0 30 30" version="1.1" xmlns="http://www.w3.org/2000/svg" xmlns:xlink="http://www.w3.org/1999/xlink">
    <!-- Generator: Sketch 52.1 (67048) - http://www.bohemiancoding.com/sketch -->
    <title>mdpi/icon_pop-upwindows_await</title>
    <desc>Created with Sketch.</desc>
    <g id="酒吧详情" stroke="none" stroke-width="1" fill="none" fill-rule="evenodd">
        <g id="0.0.1图标" transform="translate(-235.000000, -426.000000)" fill="#FFFFFF">
            <g id="Group-2" transform="translate(235.000000, 426.000000)">
                <g id="icon_pop-upwindows_await">
                    <path d="M23.4375,16.875 L13.125,16.875 L13.125,6.5625 C13.125,6 13.5,5.625 14.0625,5.625 C14.625,5.625 15,6 15,6.5625 L15,15 L23.4375,15 C24,15 24.375,15.375 24.375,15.9375 C24.375,16.5 24,16.875 23.4375,16.875 Z M30,13.875 L30,13.6875 C30,13.21875 29.53125,12.84375 28.96875,12.9375 C28.40625,12.9375 28.03125,13.5 28.125,13.96875 L28.125,15.65625 C28.125,16.21875 28.5,16.59375 28.96875,16.6875 L29.0625,16.6875 C29.53125,16.6875 30,16.3125 30,15.84375 L30,15 L30,13.875 Z M28.03125,20.25 C27.5625,20.0625 27,20.25 26.8125,20.71875 C26.53125,21.28125 26.25,21.75 25.96875,22.21875 C25.6875,22.6875 25.78125,23.25 26.25,23.53125 C26.4375,23.625 26.625,23.71875 26.71875,23.71875 C27,23.71875 27.28125,23.53125 27.46875,23.34375 C27.84375,22.78125 28.125,22.21875 28.40625,21.65625 C28.78125,21.09375 28.5,20.53125 28.03125,20.25 Z M23.71875,26.0625 C23.4375,25.59375 22.875,25.5 22.40625,25.78125 C21.9375,26.0625 21.46875,26.34375 20.90625,26.625 C20.4375,26.8125 20.25,27.375 20.53125,27.84375 C20.71875,28.21875 21,28.40625 21.375,28.40625 C21.5625,28.40625 21.65625,28.40625 21.84375,28.3125 C22.40625,28.03125 22.96875,27.65625 23.53125,27.28125 C23.90625,27.09375 24,26.53125 23.71875,26.0625 Z" id="Shape" fill-rule="nonzero"></path>
                    <path d="M28.40625,9.09375 L26.34375,8.4375 L20.90625,6.65625 L23.15625,4.6875 C20.8125,2.8125 18,1.875 15,1.875 C7.78125,1.875 1.875,7.78125 1.875,15 C1.875,22.21875 7.78125,28.125 15,28.125 C15.5625,28.125 15.9375,28.5 15.9375,29.0625 C15.9375,29.625 15.5625,30 15,30 C6.75,30 0,23.25 0,15 C0,6.75 6.75,0 15,0 C18.46875,0 21.84375,1.21875 24.5625,3.46875 L26.71875,1.5 L28.03125,7.6875 L28.40625,9.09375 Z" id="Path"></path>
                </g>
            </g>
        </g>
    </g>
</svg>