<?xml version="1.0" encoding="UTF-8"?>
<svg width="40px" height="40px" viewBox="0 0 40 40" version="1.1" xmlns="http://www.w3.org/2000/svg" xmlns:xlink="http://www.w3.org/1999/xlink">
    <!-- Generator: Sketch 52.1 (67048) - http://www.bohemiancoding.com/sketch -->
    <title>icon_succed</title>
    <desc>Created with Sketch.</desc>
    <g id="酒吧详情" stroke="none" stroke-width="1" fill="none" fill-rule="evenodd">
        <g id="3.2设置成功状态" transform="translate(-168.000000, -297.000000)">
            <g id="处理成功" transform="translate(95.000000, 277.000000)">
                <g id="Group-3" transform="translate(26.500000, 19.500000)">
                    <g id="icon_succed" transform="translate(46.500000, 0.500000)">
                        <path d="M20,40 C8.954305,40 -5.55111512e-17,31.045695 -5.55111512e-17,20 C-5.55111512e-17,8.954305 8.954305,-3.55271368e-15 20,-3.55271368e-15 C31.045695,-3.55271368e-15 40,8.954305 40,20 C40,31.045695 31.045695,40 20,40 Z M26.9011169,13.4716291 L16.9825827,23.5417862 L13.0634982,19.5628163 C12.4770291,18.9674319 11.5262472,18.9674319 10.9397781,19.5628163 C10.3534073,20.1581759 10.3534073,21.1235421 10.9397781,21.7189266 L15.6347753,26.4857203 C15.9475735,26.8032254 16.5171579,26.9478294 16.9879897,26.9251969 C17.4557493,26.9477296 18.0176901,26.8031256 18.3303409,26.4856704 L29.0247633,15.6277642 C29.6112324,15.0323299 29.6112324,14.0670135 29.0247633,13.4716291 C28.4383433,12.8761947 27.487586,12.8761947 26.9011169,13.4716291 Z" id="Combined-Shape" fill="#FFFFFF" fill-rule="nonzero"></path>
                        <g id="勾-(4)" transform="translate(10.500000, 13.000000)"></g>
                    </g>
                </g>
            </g>
        </g>
    </g>
</svg>