<?xml version="1.0" encoding="UTF-8"?>
<svg width="41px" height="41px" viewBox="0 0 41 41" version="1.1" xmlns="http://www.w3.org/2000/svg" xmlns:xlink="http://www.w3.org/1999/xlink">
    <!-- Generator: Sketch 52.1 (67048) - http://www.bohemiancoding.com/sketch -->
    <title>icon_succed</title>
    <desc>Created with Sketch.</desc>
    <g id="酒吧详情" stroke="none" stroke-width="1" fill="none" fill-rule="evenodd">
        <g id="3.4取消提醒" transform="translate(-167.000000, -296.000000)">
            <g id="处理成功" transform="translate(95.000000, 276.000000)">
                <g id="Group-3" transform="translate(26.500000, 20.500000)">
                    <g id="icon_succed" transform="translate(46.000000, 0.000000)">
                        <path d="M20,40 C8.954305,40 0,31.045695 0,20 C0,8.954305 8.954305,-1.0658141e-14 20,-1.0658141e-14 C31.045695,-1.0658141e-14 40,8.954305 40,20 C40,31.045695 31.045695,40 20,40 Z M20,8 C18.8954305,8 18,8.8954305 18,10 L18,24 C18,25.1045695 18.8954305,26 20,26 C21.1045695,26 22,25.1045695 22,24 L22,10 C22,8.8954305 21.1045695,8 20,8 Z M20,32 C21.1045695,32 22,31.1045695 22,30 C22,28.8954305 21.1045695,28 20,28 C18.8954305,28 18,28.8954305 18,30 C18,31.1045695 18.8954305,32 20,32 Z" id="Combined-Shape" fill="#FFFFFF" fill-rule="nonzero"></path>
                        <g id="勾-(4)" transform="translate(10.500000, 13.000000)"></g>
                    </g>
                </g>
            </g>
        </g>
    </g>
</svg>