<?xml version="1.0" encoding="UTF-8"?>
<svg width="15px" height="14px" viewBox="0 0 15 14" version="1.1" xmlns="http://www.w3.org/2000/svg" xmlns:xlink="http://www.w3.org/1999/xlink">
    <!-- Generator: Sketch 52.1 (67048) - http://www.bohemiancoding.com/sketch -->
    <title>mdpi/tab_set</title>
    <desc>Created with Sketch.</desc>
    <g id="商家端" stroke="none" stroke-width="1" fill="none" fill-rule="evenodd">
        <g id="0.0.1图标_商家端" transform="translate(-54.000000, -747.000000)" fill-rule="nonzero" stroke="#FFFFFF">
            <g id="tab" transform="translate(54.000000, 743.000000)">
                <g id="Group-4">
                    <g id="tab_set" transform="translate(0.000000, 4.000000)">
                        <path d="M14.3941426,5.82872912 C14.3576263,5.63140818 14.1793636,5.48752255 13.968591,5.49534565 C13.1700291,5.51753368 12.4312973,5.10689035 12.0329606,4.42211135 C11.6344453,3.73702518 11.6470631,2.89382101 12.0641136,2.22681388 C12.1714848,2.05030151 12.1356902,1.82935034 11.9831569,1.70522426 C11.3559118,1.19235983 10.6631976,0.794122505 9.92548616,0.525205919 C9.73037241,0.454508647 9.50917519,0.537512495 9.41214897,0.713566966 C9.03659391,1.40953568 8.30051611,1.84392011 7.5,1.84392011 C6.70924887,1.84392011 5.97550805,1.41091481 5.58994983,0.717415938 C5.49082481,0.537512495 5.26962759,0.454508647 5.0754221,0.52487583 C4.31293286,0.802823574 3.61859399,1.19879715 3.01593723,1.70596315 C2.86564093,1.82826713 2.82908352,2.05508997 2.93267372,2.22160444 C3.35293689,2.89382101 3.36555473,3.73702518 2.96703937,4.42211135 C2.57292353,5.09963434 1.83200172,5.50667361 1.04529617,5.49553854 L1.01916376,5.49553854 C0.814144724,5.49553854 0.636234999,5.64157909 0.606251971,5.82635063 C0.537033267,6.23600073 0.5,6.63375417 0.5,6.99748465 C0.5,7.40145969 0.53430152,7.78955412 0.605425364,8.1638663 C0.640298125,8.35878448 0.824764243,8.50743744 1.03121081,8.49962919 C1.8238205,8.47729194 2.57001373,8.89033274 2.96703937,9.57285795 C3.36555473,10.2579441 3.35293689,11.1011483 2.93588643,11.7681554 C2.82851517,11.9446678 2.86430981,12.165619 3.01684307,12.289745 C3.64408817,12.8026095 4.33680236,13.2008468 5.07451384,13.4697634 C5.26962759,13.5404607 5.49082481,13.4574568 5.58785103,13.2814023 C5.96340609,12.5854336 6.69948389,12.1510492 7.5,12.1510492 C8.29668189,12.1510492 9.02311834,12.5815838 9.4101667,13.277765 C9.48590799,13.4153862 9.62962286,13.5 9.78222997,13.5 C9.83299455,13.5 9.88487759,13.4914707 9.9245779,13.4786855 C10.6870671,13.2007378 11.381406,12.8047642 11.9840628,12.2975982 C12.1343591,12.1752942 12.1709165,11.9484714 12.0673263,11.7819569 C11.6470631,11.1097403 11.6344453,10.2665362 12.0329606,9.58144999 C12.4270765,8.90392701 13.1679983,8.49688773 13.9641864,8.50811273 C14.175622,8.51212336 14.3602046,8.36456652 14.393748,8.17721071 C14.4629667,7.76756062 14.5,7.36980718 14.5,7.00607669 C14.5,6.64096606 14.4626181,6.23465965 14.3941495,5.82872886 Z" id="Shape"></path>
                        <circle id="Oval" cx="7.5" cy="7" r="2"></circle>
                    </g>
                </g>
            </g>
        </g>
    </g>
</svg>