<?xml version="1.0" encoding="UTF-8"?>
<svg width="16px" height="16px" viewBox="0 0 16 16" version="1.1" xmlns="http://www.w3.org/2000/svg" xmlns:xlink="http://www.w3.org/1999/xlink">
    <!-- Generator: Sketch 52.1 (67048) - http://www.bohemiancoding.com/sketch -->
    <title>mdpi/mine_list_icon_open</title>
    <desc>Created with Sketch.</desc>
    <g id="商家端" stroke="none" stroke-width="1" fill="none" fill-rule="evenodd">
        <g id="0.0.1图标_商家端" transform="translate(-14.000000, -173.000000)" fill-rule="nonzero">
            <g id="1-copy-6" transform="translate(0.000000, 156.000000)">
                <rect id="Rectangle" x="0" y="0" width="375" height="50"></rect>
                <g id="mine_list_icon_open" opacity="0.800000012" transform="translate(15.000000, 19.000000)" stroke="#FFFFFF" stroke-width="0.857142857">
                    <path d="M0.857142857,0.428571429 C0.620449393,0.428571429 0.428571429,0.620449393 0.428571429,0.857142857 L0.428571429,9.54127106 C0.428571429,9.68456529 0.500186201,9.81837871 0.619414202,9.89786405 L5.68302846,13.2736069 C5.87497098,13.4015686 6.12502902,13.4015686 6.31697154,13.2736069 L11.3805858,9.89786405 C11.4998138,9.81837871 11.5714286,9.68456529 11.5714286,9.54127106 L11.5714286,0.857142857 C11.5714286,0.620449393 11.3795506,0.428571429 11.1428571,0.428571429 L0.857142857,0.428571429 Z" id="Rectangle"></path>
                    <path d="M5.94837924,8.5253486 L6.05162076,8.5253486 L7.94122537,8.75461769 C7.97838938,8.75912687 8.01272965,8.73417721 8.01992548,8.69743872 L8.38579755,6.82946989 L8.41770093,6.73128138 L9.21966874,5.00500864 C9.23544153,4.97105698 9.22232472,4.93068758 9.18960797,4.91249112 L7.52612473,3.98729199 L7.44260059,3.92660815 L6.04863934,2.63044383 C6.02122345,2.60495137 5.97877655,2.60495137 5.95136066,2.63044383 L4.55739941,3.92660815 L4.47387527,3.98729199 L2.81039203,4.91249112 C2.77767528,4.93068758 2.76455847,4.97105698 2.78033126,5.00500864 L3.58229907,6.73128138 L3.61420245,6.82946989 L3.98007452,8.69743872 C3.98727035,8.73417721 4.02161062,8.75912687 4.05877463,8.75461769 L5.94837924,8.5253486 Z" id="Star"></path>
                </g>
            </g>
        </g>
    </g>
</svg>