<?xml version="1.0" standalone="no"?><!DOCTYPE svg PUBLIC "-//W3C//DTD SVG 1.1//EN" "http://www.w3.org/Graphics/SVG/1.1/DTD/svg11.dtd"><svg t="1567789915051" class="icon" viewBox="0 0 1024 1024" version="1.1" xmlns="http://www.w3.org/2000/svg" p-id="4569" xmlns:xlink="http://www.w3.org/1999/xlink" width="64" height="64"><defs><style type="text/css"></style></defs><path d="M759.665212 947.236185 200.209626 947.236185c-51.407381 0-93.242395-41.835014-93.242395-93.242395L106.96723 232.406609c0-51.403732 41.835014-93.23753 93.242395-93.23753l435.130366 0c17.185257 0 31.082826 13.925544 31.082826 31.076744 0 17.157282-13.897569 31.082826-31.082826 31.082826L200.209626 201.328649c-17.123225 0-31.082826 13.94987-31.082826 31.07796l0 621.587181c0 17.156066 13.9596 31.081609 31.082826 31.081609l559.455587 0c17.152417 0 31.07796-13.925544 31.07796-31.081609L790.743173 356.726964c0-17.157282 13.897569-31.082826 31.082826-31.082826 17.188906 0 31.076744 13.920678 31.076744 31.082826l0 497.266826C852.902742 905.401171 811.068944 947.236185 759.665212 947.236185L759.665212 947.236185 759.665212 947.236185zM577.06167 449.964494c-7.958322 0-15.911779-3.050508-21.969008-9.107736-12.158244-12.154595-12.158244-31.795584 0-43.944097L863.968739 88.045099c12.153379-12.158244 31.800449-12.158244 43.948962 0 12.153379 12.14973 12.153379 31.790719 0 43.944097L599.040409 440.856758C592.978315 446.946827 585.019993 449.964494 577.06167 449.964494L577.06167 449.964494 577.06167 449.964494zM448.855202 449.964494 262.370411 449.964494c-17.157282 0-31.082826-13.920678-31.082826-31.082826 0-17.1512 13.925544-31.07796 31.082826-31.07796L448.860067 387.803708c17.1512 0 31.07796 13.92676 31.07796 31.07796C479.933162 436.043816 466.011267 449.964494 448.855202 449.964494L448.855202 449.964494 448.855202 449.964494zM635.339992 636.439554 262.370411 636.439554c-17.157282 0-31.082826-13.891487-31.082826-31.076744 0-17.190122 13.925544-31.082826 31.082826-31.082826l372.96958 0c17.185257 0 31.082826 13.892703 31.082826 31.082826C666.422817 622.548067 652.525249 636.439554 635.339992 636.439554L635.339992 636.439554 635.339992 636.439554zM635.339992 636.439554" p-id="4570" fill="#ffffff"></path></svg>