<?xml version="1.0" encoding="UTF-8"?>
<svg width="37px" height="37px" viewBox="0 0 37 37" version="1.1" xmlns="http://www.w3.org/2000/svg" xmlns:xlink="http://www.w3.org/1999/xlink">
    <!-- Generator: Sketch 52.1 (67048) - http://www.bohemiancoding.com/sketch -->
    <title>mdpi/time_icon_special</title>
    <desc>Created with Sketch.</desc>
    <defs>
        <linearGradient x1="69.1689253%" y1="0%" x2="-11.2615678%" y2="109.174882%" id="linearGradient-1">
            <stop stop-color="#FF26BA" offset="0%"></stop>
            <stop stop-color="#0084FF" offset="100%"></stop>
        </linearGradient>
    </defs>
    <g id="商家端" stroke="none" stroke-width="1" fill="none" fill-rule="evenodd">
        <g id="0.0.1图标_商家端" transform="translate(-15.000000, -869.000000)" fill-rule="nonzero">
            <g id="1-copy-11" transform="translate(15.000000, 869.000000)">
                <g id="time_icon_special">
                    <circle id="Oval" fill="#162766" cx="18.5" cy="18.5" r="18.5"></circle>
                    <path d="M19,26.6254185 L14.6493504,27.4825219 C13.5656114,27.6960248 12.513989,26.9905591 12.3004861,25.90682 C12.2908371,25.8578419 12.2830253,25.8085197 12.2770669,25.758957 L11.747796,21.3563839 L9.58821762,17.4835298 C9.0502705,16.5188088 9.39623912,15.3006556 10.3609602,14.7627084 C10.4045594,14.7383966 10.4490536,14.7157257 10.4943493,14.6947433 L14.5178914,12.8309068 L17.5338481,9.58024798 C18.2851176,8.77051467 19.5505603,8.72312033 20.3602936,9.47438975 C20.3968884,9.50834236 20.4321992,9.54365317 20.4661519,9.58024798 L23.4821086,12.8309068 L27.5056507,14.6947433 C28.5079079,15.1590216 28.9440259,16.3478835 28.4797475,17.3501407 C28.4587651,17.3954363 28.4360942,17.4399305 28.4117824,17.4835298 L26.252204,21.3563839 L25.7229331,25.758957 C25.5910926,26.8556301 24.5951857,27.6377815 23.4985126,27.5059411 C23.4489499,27.4999828 23.3996277,27.4921709 23.3506496,27.4825219 L19,26.6254185 Z" id="Star" fill="url(#linearGradient-1)"></path>
                </g>
            </g>
        </g>
    </g>
</svg>